P3
57 64
255
255 255 255
255 255 255
255 255 255
255 255 255
255 255 255
255 255 255
255 255 255
255 255 255
255 255 255
255 255 255
255 255 255
255 255 255
255 255 255
255 255 255
255 255 255
255 255 255
255 255 255
255 255 255
255 255 255
255 255 255
255 255 255
255 255 255
255 255 255
255 255 255
255 255 255
243 247 251
169 199 230
119 166 215
101 154 210
109 160 212
146 183 223
219 232 244
255 255 255
255 255 255
255 255 255
255 255 255
255 255 255
255 255 255
255 255 255
255 255 255
255 255 255
255 255 255
255 255 255
255 255 255
255 255 255
255 255 255
255 255 255
255 255 255
255 255 255
255 255 255
255 255 255
255 255 255
255 255 255
255 255 255
255 255 255
255 255 255
255 255 255
255 255 255
255 255 255
255 255 255
255 255 255
255 255 255
255 255 255
255 255 255
255 255 255
255 255 255
255 255 255
255 255 255
255 255 255
255 255 255
255 255 255
255 255 255
255 255 255
255 255 255
255 255 255
255 255 255
255 255 255
255 255 255
255 255 255
255 255 255
252 253 254
188 211 235
110 160 213
100 154 210
100 154 210
100 154 210
100 154 210
100 154 210
100 154 210
154 189 225
237 243 249
255 255 255
255 255 255
255 255 255
255 255 255
255 255 255
255 255 255
255 255 255
255 255 255
255 255 255
255 255 255
255 255 255
255 255 255
255 255 255
255 255 255
255 255 255
255 255 255
255 255 255
255 255 255
255 255 255
255 255 255
255 255 255
255 255 255
255 255 255
255 255 255
255 255 255
255 255 255
255 255 255
255 255 255
255 255 255
255 255 255
255 255 255
255 255 255
255 255 255
255 255 255
255 255 255
255 255 255
255 255 255
255 255 255
255 255 255
255 255 255
255 255 255
255 255 255
255 255 255
255 255 255
255 255 255
211 226 242
125 170 217
100 154 210
100 154 210
100 154 210
100 154 210
100 154 210
100 154 210
100 154 210
100 154 210
100 154 210
106 158 211
178 205 232
249 251 253
255 255 255
255 255 255
255 255 255
255 255 255
255 255 255
255 255 255
255 255 255
255 255 255
255 255 255
255 255 255
255 255 255
255 255 255
255 255 255
255 255 255
255 255 255
255 255 255
255 255 255
255 255 255
255 255 255
255 255 255
255 255 255
255 255 255
255 255 255
255 255 255
255 255 255
255 255 255
255 255 255
255 255 255
255 255 255
255 255 255
255 255 255
255 255 255
255 255 255
255 255 255
255 255 255
255 255 255
255 255 255
255 255 255
255 255 255
255 255 255
255 255 255
232 240 248
146 184 223
100 154 210
100 154 210
100 154 210
100 154 210
100 154 210
100 154 210
100 154 210
100 154 210
100 154 210
100 154 210
100 154 210
100 154 210
100 154 210
118 166 215
202 220 239
254 254 254
255 255 255
255 255 255
255 255 255
255 255 255
255 255 255
255 255 255
255 255 255
255 255 255
255 255 255
255 255 255
255 255 255
255 255 255
255 255 255
255 255 255
255 255 255
255 255 255
255 255 255
255 255 255
255 255 255
255 255 255
255 255 255
255 255 255
255 255 255
255 255 255
255 255 255
255 255 255
255 255 255
255 255 255
255 255 255
255 255 255
255 255 255
255 255 255
255 255 255
255 255 255
255 255 255
255 255 255
255 255 255
246 249 252
170 199 230
103 156 211
100 154 210
100 154 210
100 154 210
100 154 210
100 154 210
100 154 210
100 154 210
100 154 210
100 154 210
100 154 210
100 154 210
100 154 210
100 154 210
100 154 210
100 154 210
100 154 210
136 178 220
224 235 246
255 255 255
255 255 255
255 255 255
255 255 255
255 255 255
255 255 255
255 255 255
255 255 255
255 255 255
255 255 255
255 255 255
255 255 255
255 255 255
255 255 255
255 255 255
255 255 255
255 255 255
255 255 255
255 255 255
255 255 255
255 255 255
255 255 255
255 255 255
255 255 255
255 255 255
255 255 255
255 255 255
255 255 255
255 255 255
255 255 255
255 255 255
255 255 255
255 255 255
255 255 255
253 254 254
194 215 237
113 162 213
100 154 210
100 154 210
100 154 210
100 154 210
100 154 210
100 154 210
100 154 210
100 154 210
100 154 210
100 154 210
100 154 210
100 154 210
100 154 210
100 154 210
100 154 210
100 154 210
100 154 210
100 154 210
100 154 210
101 154 210
160 193 227
241 245 250
255 255 255
255 255 255
255 255 255
255 255 255
255 255 255
255 255 255
255 255 255
255 255 255
255 255 255
255 255 255
255 255 255
255 255 255
255 255 255
255 255 255
255 255 255
255 255 255
255 255 255
255 255 255
255 255 255
255 255 255
255 255 255
255 255 255
255 255 255
255 255 255
255 255 255
255 255 255
255 255 255
255 255 255
255 255 255
255 255 255
255 255 255
217 230 244
129 173 218
100 154 210
100 154 210
100 154 210
100 154 210
100 154 210
100 154 210
100 154 210
100 154 210
100 154 210
100 154 210
100 154 210
100 154 210
100 154 210
100 154 210
100 154 210
100 154 210
100 154 210
100 154 210
100 154 210
100 154 210
100 154 210
100 154 210
100 154 210
108 159 212
184 208 234
251 252 253
255 255 255
255 255 255
255 255 255
255 255 255
255 255 255
255 255 255
255 255 255
255 255 255
255 255 255
255 255 255
255 255 255
255 255 255
255 255 255
255 255 255
255 255 255
255 255 255
255 255 255
255 255 255
255 255 255
255 255 255
255 255 255
255 255 255
255 255 255
255 255 255
255 255 255
255 255 255
255 255 255
236 242 249
152 187 225
100 154 210
100 154 210
100 154 210
100 154 210
100 154 210
100 154 210
100 154 210
100 154 210
100 154 210
100 154 210
100 154 210
100 154 210
100 154 210
100 154 210
100 154 210
100 154 210
100 154 210
100 154 210
100 154 210
100 154 210
100 154 210
100 154 210
100 154 210
100 154 210
100 154 210
100 154 210
100 154 210
122 168 216
208 224 241
254 254 254
255 255 255
255 255 255
255 255 255
255 255 255
255 255 255
255 255 255
255 255 255
255 255 255
255 255 255
255 255 255
255 255 255
255 255 255
255 255 255
255 255 255
255 255 255
255 255 255
255 255 255
255 255 255
255 255 255
255 255 255
255 255 255
255 255 255
255 255 255
248 250 253
175 203 231
105 157 211
100 154 210
100 154 210
100 154 210
100 154 210
100 154 210
100 154 210
100 154 210
100 154 210
100 154 210
100 154 210
100 154 210
100 154 210
100 154 210
100 154 210
100 154 210
100 154 210
100 154 210
100 154 210
100 154 210
100 154 210
100 154 210
100 154 210
100 154 210
100 154 210
100 154 210
100 154 210
100 154 210
100 154 210
100 154 210
100 154 210
142 181 222
229 238 247
255 255 255
255 255 255
255 255 255
255 255 255
255 255 255
255 255 255
255 255 255
255 255 255
255 255 255
255 255 255
255 255 255
255 255 255
255 255 255
255 255 255
255 255 255
255 255 255
255 255 255
255 255 255
255 255 255
255 255 255
254 254 254
199 219 238
116 165 214
100 154 210
100 154 210
100 154 210
100 154 210
100 154 210
100 154 210
100 154 210
100 154 210
100 154 210
100 154 210
100 154 210
100 154 210
100 154 210
100 154 210
100 154 210
100 154 210
100 154 210
100 154 210
100 154 210
100 154 210
100 154 210
100 154 210
100 154 210
100 154 210
100 154 210
100 154 210
100 154 210
100 154 210
100 154 210
100 154 210
100 154 210
100 154 210
100 154 210
102 155 210
166 197 229
244 247 251
255 255 255
255 255 255
255 255 255
255 255 255
255 255 255
255 255 255
255 255 255
255 255 255
255 255 255
255 255 255
255 255 255
255 255 255
255 255 255
255 255 255
255 255 255
255 255 255
255 255 255
222 233 245
134 176 220
100 154 210
100 154 210
100 154 210
100 154 210
100 154 210
100 154 210
100 154 210
100 154 210
100 154 210
100 154 210
100 154 210
100 154 210
100 154 210
100 154 210
100 154 210
100 154 210
100 154 210
100 154 210
100 154 210
100 154 210
100 154 210
100 154 210
100 154 210
100 154 210
100 154 210
100 154 210
100 154 210
100 154 210
100 154 210
100 154 210
100 154 210
100 154 210
100 154 210
100 154 210
100 154 210
100 154 210
100 154 210
111 161 213
190 212 236
252 253 254
255 255 255
255 255 255
255 255 255
255 255 255
255 255 255
255 255 255
255 255 255
255 255 255
255 255 255
255 255 255
255 255 255
255 255 255
255 255 255
239 244 250
157 191 226
101 154 210
100 154 210
100 154 210
100 154 210
100 154 210
100 154 210
100 154 210
100 154 210
100 154 210
100 154 210
100 154 210
100 154 210
100 154 210
100 154 210
100 154 210
100 154 210
100 154 210
100 154 210
100 154 210
100 154 210
100 154 210
100 154 210
100 154 210
100 154 210
100 154 210
100 154 210
100 154 210
100 154 210
100 154 210
100 154 210
100 154 210
100 154 210
100 154 210
100 154 210
100 154 210
100 154 210
100 154 210
100 154 210
100 154 210
100 154 210
100 154 210
126 171 217
213 228 242
255 255 255
255 255 255
255 255 255
255 255 255
255 255 255
255 255 255
255 255 255
255 255 255
255 255 255
255 255 255
250 252 253
181 207 233
107 158 212
100 154 210
100 154 210
100 154 210
100 154 210
100 154 210
100 154 210
100 154 210
100 154 210
100 154 210
100 154 210
100 154 210
100 154 210
100 154 210
100 154 210
100 154 210
100 154 210
100 154 210
100 154 210
100 154 210
100 154 210
100 154 210
100 154 210
100 154 210
100 154 210
100 154 210
100 154 210
100 154 210
100 154 210
100 154 210
100 154 210
100 154 210
100 154 210
100 154 210
100 154 210
100 154 210
100 154 210
100 154 210
100 154 210
100 154 210
100 154 210
100 154 210
100 154 210
100 154 210
100 154 210
148 185 223
233 240 248
255 255 255
255 255 255
255 255 255
255 255 255
255 255 255
255 255 255
254 254 254
205 222 240
120 167 216
100 154 210
100 154 210
100 154 210
100 154 210
100 154 210
100 154 210
100 154 210
100 154 210
100 154 210
100 154 210
100 154 210
100 154 210
100 154 210
100 154 210
100 154 210
100 154 210
100 154 210
100 154 210
121 168 216
160 193 227
191 213 236
213 227 242
226 236 246
232 240 248
229 238 247
218 231 244
199 219 238
172 201 230
136 177 220
102 155 210
100 154 210
100 154 210
100 154 210
100 154 210
100 154 210
100 154 210
100 154 210
100 154 210
100 154 210
100 154 210
100 154 210
100 154 210
100 154 210
100 154 210
100 154 210
100 154 210
100 154 210
104 156 211
171 200 230
246 249 252
255 255 255
255 255 255
255 255 255
241 245 250
141 180 221
100 154 210
100 154 210
100 154 210
100 154 210
100 154 210
100 154 210
100 154 210
100 154 210
100 154 210
100 154 210
100 154 210
100 154 210
100 154 210
100 154 210
100 154 210
100 154 210
100 154 210
110 160 212
170 199 230
228 237 247
254 255 255
255 255 255
255 255 255
255 255 255
255 255 255
255 255 255
255 255 255
255 255 255
255 255 255
255 255 255
255 255 255
243 247 251
191 213 236
127 172 218
100 154 210
100 154 210
100 154 210
100 154 210
100 154 210
100 154 210
100 154 210
100 154 210
100 154 210
100 154 210
100 154 210
100 154 210
100 154 210
100 154 210
100 154 210
100 154 210
100 154 210
114 163 214
209 225 241
255 255 255
250 251 253
128 172 218
100 154 210
100 154 210
100 154 210
100 154 210
100 154 210
100 154 210
100 154 210
100 154 210
100 154 210
100 154 210
100 154 210
100 154 210
100 154 210
100 154 210
100 154 210
100 154 210
106 158 211
177 204 232
246 249 252
255 255 255
255 255 255
255 255 255
255 255 255
255 255 255
255 255 255
255 255 255
255 255 255
255 255 255
255 255 255
255 255 255
255 255 255
255 255 255
255 255 255
255 255 255
254 254 254
207 223 241
124 170 217
100 154 210
100 154 210
100 154 210
100 154 210
100 154 210
100 154 210
100 154 210
100 154 210
100 154 210
100 154 210
100 154 210
100 154 210
100 154 210
100 154 210
100 154 210
100 154 210
103 156 210
217 230 244
183 208 234
100 154 210
100 154 210
100 154 210
100 154 210
100 154 210
100 154 210
100 154 210
100 154 210
100 154 210
100 154 210
100 154 210
100 154 210
100 154 210
100 154 210
100 154 210
100 154 210
138 178 220
234 241 249
255 255 255
255 255 255
255 255 255
255 255 255
255 255 255
255 255 255
255 255 255
255 255 255
255 255 255
255 255 255
255 255 255
255 255 255
255 255 255
255 255 255
255 255 255
255 255 255
255 255 255
255 255 255
255 255 255
251 252 253
177 204 232
102 155 210
100 154 210
100 154 210
100 154 210
100 154 210
100 154 210
100 154 210
100 154 210
100 154 210
100 154 210
100 154 210
100 154 210
100 154 210
100 154 210
100 154 210
78 139 198
62 128 182
124 170 217
100 154 210
100 154 210
100 154 210
100 154 210
100 154 210
100 154 210
100 154 210
100 154 210
100 154 210
100 154 210
100 154 210
100 154 210
100 154 210
100 154 210
100 154 210
171 200 230
253 253 254
255 255 255
255 255 255
255 255 255
255 255 255
255 255 255
255 255 255
255 255 255
255 255 255
255 255 255
255 255 255
255 255 255
255 255 255
255 255 255
255 255 255
255 255 255
255 255 255
255 255 255
255 255 255
255 255 255
255 255 255
255 255 255
255 255 255
216 229 243
111 161 213
100 154 210
100 154 210
100 154 210
100 154 210
100 154 210
100 154 210
100 154 210
100 154 210
100 154 210
100 154 210
100 154 210
89 146 204
36 111 175
0 88 156
0 88 156
101 154 210
100 154 210
100 154 210
100 154 210
100 154 210
100 154 210
100 154 210
100 154 210
100 154 210
100 154 210
100 154 210
100 154 210
100 154 210
100 154 210
100 154 210
188 211 235
255 255 255
255 255 255
255 255 255
255 255 255
255 255 255
255 255 255
255 255 255
255 255 255
255 255 255
255 255 255
255 255 255
255 255 255
255 255 255
255 255 255
255 255 255
255 255 255
255 255 255
255 255 255
255 255 255
255 255 255
255 255 255
255 255 255
255 255 255
255 255 255
255 255 255
231 239 248
116 164 214
100 154 210
100 154 210
100 154 210
100 154 210
100 154 210
100 154 210
100 154 210
100 154 210
96 151 208
51 121 183
4 90 158
0 88 156
0 88 156
0 88 156
100 154 210
100 154 210
100 154 210
100 154 210
100 154 210
100 154 210
100 154 210
100 154 210
100 154 210
100 154 210
100 154 210
100 154 210
100 154 210
100 154 210
183 208 234
255 255 255
255 255 255
255 255 255
255 255 255
255 255 255
255 255 255
255 255 255
255 255 255
255 255 255
255 255 255
255 255 255
255 255 255
255 255 255
255 255 255
255 255 255
255 255 255
255 255 255
255 255 255
255 255 255
255 255 255
255 255 255
255 255 255
255 255 255
255 255 255
255 255 255
255 255 255
255 255 255
231 239 248
112 161 213
100 154 210
100 154 210
100 154 210
100 154 210
100 154 210
99 153 209
67 132 191
12 96 162
0 88 156
0 88 156
0 88 156
0 88 156
0 88 156
100 154 210
100 154 210
100 154 210
100 154 210
100 154 210
100 154 210
100 154 210
100 154 210
100 154 210
100 154 210
100 154 210
100 154 210
100 154 210
159 192 226
254 254 254
255 255 255
255 255 255
255 255 255
255 255 255
255 255 255
255 255 255
255 255 255
255 255 255
255 255 255
255 255 255
255 255 255
255 255 255
255 255 255
255 255 255
255 255 255
255 255 255
255 255 255
255 255 255
255 255 255
255 255 255
255 255 255
255 255 255
255 255 255
255 255 255
255 255 255
255 255 255
255 255 255
255 255 255
216 229 243
102 155 210
100 154 210
100 154 210
100 154 210
81 141 199
24 104 169
0 88 156
0 88 156
0 88 156
0 88 156
0 88 156
0 88 156
0 88 156
100 154 210
100 154 210
100 154 210
100 154 210
100 154 210
100 154 210
100 154 210
100 154 210
100 154 210
100 154 210
100 154 210
100 154 210
123 169 216
249 251 253
255 255 255
255 255 255
255 255 255
255 255 255
255 255 255
255 255 255
255 255 255
255 255 255
255 255 255
255 255 255
255 255 255
255 255 255
255 255 255
255 255 255
255 255 255
255 255 255
255 255 255
255 255 255
255 255 255
255 255 255
255 255 255
255 255 255
255 255 255
255 255 255
255 255 255
255 255 255
255 255 255
255 255 255
255 255 255
255 255 255
177 204 232
100 154 210
91 148 205
40 114 177
1 88 156
0 88 156
0 88 156
0 88 156
0 88 156
0 88 156
0 88 156
0 88 156
0 88 156
100 154 210
100 154 210
100 154 210
100 154 210
100 154 210
100 154 210
100 154 210
100 154 210
100 154 210
100 154 210
100 154 210
100 154 210
216 229 243
255 255 255
255 255 255
255 255 255
255 255 255
255 255 255
255 255 255
255 255 255
255 255 255
255 255 255
255 255 255
255 255 255
255 255 255
255 255 255
246 249 252
220 232 244
209 225 241
214 228 243
236 242 249
254 254 254
255 255 255
255 255 255
255 255 255
255 255 255
255 255 255
255 255 255
255 255 255
255 255 255
255 255 255
255 255 255
255 255 255
255 255 255
246 249 251
67 131 189
6 91 159
0 88 156
0 88 156
0 88 156
0 88 156
0 88 156
0 88 156
0 88 156
0 88 156
0 88 156
0 88 156
100 154 210
100 154 210
100 154 210
100 154 210
100 154 210
100 154 210
100 154 210
100 154 210
100 154 210
100 154 210
100 154 210
147 185 223
255 255 255
255 255 255
255 255 255
255 255 255
255 255 255
255 255 255
255 255 255
255 255 255
255 255 255
255 255 255
255 255 255
254 254 254
204 221 240
138 179 221
101 155 210
100 154 210
100 154 210
100 154 210
100 154 210
120 167 215
177 204 232
244 248 251
255 255 255
255 255 255
255 255 255
255 255 255
255 255 255
255 255 255
255 255 255
255 255 255
255 255 255
181 206 226
39 113 171
0 88 156
0 88 156
0 88 156
0 88 156
0 88 156
0 88 156
0 88 156
0 88 156
0 88 156
0 88 156
0 88 156
0 88 156
100 154 210
100 154 210
100 154 210
100 154 210
100 154 210
100 154 210
100 154 210
100 154 210
100 154 210
100 154 210
100 154 210
222 233 245
255 255 255
255 255 255
255 255 255
255 255 255
255 255 255
255 255 255
255 255 255
255 255 255
255 255 255
255 255 255
237 243 249
137 178 220
100 154 210
100 154 210
100 154 210
100 154 210
100 154 210
100 154 210
100 154 210
100 154 210
100 154 210
112 161 213
205 222 240
255 255 255
255 255 255
255 255 255
255 255 255
255 255 255
255 255 255
215 229 239
73 136 184
0 88 156
0 88 156
0 88 156
0 88 156
0 88 156
0 88 156
0 88 156
0 88 156
0 88 156
0 88 156
0 88 156
0 88 156
0 88 156
0 88 156
100 154 210
100 154 210
100 154 210
100 154 210
100 154 210
100 154 210
100 154 210
100 154 210
100 154 210
100 154 210
131 174 219
255 255 255
255 255 255
255 255 255
255 255 255
255 255 255
255 255 255
255 255 255
255 255 255
255 255 255
255 255 255
230 239 247
115 164 214
100 154 210
100 154 210
100 154 210
100 154 210
100 154 210
100 154 210
100 154 210
100 154 210
100 154 210
100 154 210
100 154 210
100 154 210
187 210 235
255 255 255
255 255 255
255 255 255
239 244 248
113 162 199
5 91 158
0 88 156
0 88 156
0 88 156
0 88 156
0 88 156
0 88 156
0 88 156
0 88 156
0 88 156
0 88 156
0 88 156
0 88 156
0 88 156
0 88 156
0 88 156
100 154 210
100 154 210
100 154 210
100 154 210
100 154 210
100 154 210
100 154 210
100 154 210
100 154 210
100 154 210
185 209 234
255 255 255
255 255 255
255 255 255
255 255 255
255 255 255
255 255 255
255 255 255
255 255 255
255 255 255
245 248 252
120 167 215
100 154 210
100 154 210
100 154 210
100 154 210
100 154 210
100 154 210
100 154 210
100 154 210
100 154 210
100 154 210
100 154 210
100 154 210
100 154 210
100 154 210
206 223 240
252 253 253
152 188 215
21 101 164
0 88 156
0 88 156
0 88 156
0 88 156
0 88 156
0 88 156
0 88 156
0 88 156
0 88 156
0 88 156
0 88 156
0 88 156
0 88 156
0 88 156
0 88 156
0 88 156
0 88 156
100 154 210
100 154 210
100 154 210
100 154 210
100 154 210
100 154 210
100 154 210
100 154 210
100 154 210
100 154 210
229 238 247
255 255 255
255 255 255
255 255 255
255 255 255
255 255 255
255 255 255
255 255 255
255 255 255
255 255 255
162 194 228
100 154 210
100 154 210
100 154 210
100 154 210
100 154 210
100 154 210
100 154 210
100 154 210
100 154 210
100 154 210
100 154 210
100 154 210
100 154 210
100 154 210
100 154 210
87 145 199
47 119 174
0 88 156
0 88 156
0 88 156
0 88 156
0 88 156
0 88 156
0 88 156
0 88 156
0 88 156
0 88 156
0 88 156
0 88 156
0 88 156
0 88 156
0 88 156
0 88 156
0 88 156
0 88 156
0 88 156
100 154 210
100 154 210
100 154 210
100 154 210
100 154 210
100 154 210
100 154 210
100 154 210
100 154 210
110 160 213
254 254 254
255 255 255
255 255 255
255 255 255
255 255 255
255 255 255
255 255 255
255 255 255
255 255 255
237 243 249
102 155 210
100 154 210
100 154 210
100 154 210
100 154 210
100 154 210
100 154 210
100 154 210
100 154 210
100 154 210
100 154 210
100 154 210
100 154 210
100 154 210
86 145 202
32 109 173
0 88 156
0 88 156
0 88 156
0 88 156
0 88 156
0 88 156
0 88 156
0 88 156
0 88 156
0 88 156
0 88 156
0 88 156
0 88 156
0 88 156
0 88 156
0 88 156
0 88 156
0 88 156
0 88 156
0 88 156
0 88 156
100 154 210
100 154 210
100 154 210
100 154 210
100 154 210
100 154 210
100 154 210
100 154 210
100 154 210
136 178 220
255 255 255
255 255 255
255 255 255
255 255 255
255 255 255
255 255 255
255 255 255
255 255 255
255 255 255
183 208 234
100 154 210
100 154 210
100 154 210
100 154 210
100 154 210
100 154 210
100 154 210
100 154 210
100 154 210
100 154 210
100 154 210
100 154 210
95 150 207
47 119 181
3 89 157
0 88 156
0 88 156
0 88 156
0 88 156
0 88 156
0 88 156
0 88 156
0 88 156
104 156 196
239 244 248
164 195 219
0 88 156
0 88 156
0 88 156
0 88 156
0 88 156
112 161 199
239 244 248
156 190 216
0 88 156
0 88 156
0 88 156
100 154 210
100 154 210
100 154 210
100 154 210
100 154 210
100 154 210
100 154 210
100 154 210
100 154 210
155 189 225
255 255 255
255 255 255
255 255 255
255 255 255
255 255 255
255 255 255
255 255 255
255 255 255
255 255 255
145 183 223
100 154 210
100 154 210
100 154 210
100 154 210
100 154 210
100 154 210
100 154 210
100 154 210
100 154 210
100 154 210
99 153 209
62 129 189
10 94 161
0 88 156
0 88 156
0 88 156
0 88 156
0 88 156
0 88 156
0 88 156
0 88 156
0 88 156
0 88 156
111 161 199
255 255 255
175 202 224
0 88 156
0 88 156
0 88 156
0 88 156
0 88 156
119 166 202
255 255 255
167 197 221
0 88 156
0 88 156
0 88 156
100 154 210
100 154 210
100 154 210
100 154 210
100 154 210
100 154 210
100 154 210
100 154 210
100 154 210
165 196 228
255 255 255
255 255 255
255 255 255
255 255 255
255 255 255
255 255 255
255 255 255
255 255 255
255 255 255
124 170 217
100 154 210
100 154 210
100 154 210
100 154 210
100 154 210
100 154 210
100 154 210
100 154 210
100 154 210
77 139 197
21 101 167
0 88 156
0 88 156
0 88 156
0 88 156
0 88 156
0 88 156
0 88 156
0 88 156
0 88 156
0 88 156
116 164 201
207 223 236
228 237 244
255 255 255
240 245 249
207 223 236
168 198 221
0 88 156
122 168 203
207 223 236
229 238 245
255 255 255
238 244 248
207 223 236
162 194 219
0 88 156
100 154 210
100 154 210
100 154 210
100 154 210
100 154 210
100 154 210
100 154 210
100 154 210
100 154 210
167 197 229
255 255 255
255 255 255
255 255 255
255 255 255
255 255 255
255 255 255
255 255 255
255 255 255
255 255 255
120 167 216
100 154 210
100 154 210
100 154 210
100 154 210
100 154 210
100 154 210
100 154 210
89 144 201
36 99 159
0 82 148
0 88 156
0 88 156
0 88 156
0 88 156
0 88 156
0 88 156
0 88 156
0 88 156
0 88 156
0 88 156
0 88 156
143 181 211
255 255 255
255 255 255
255 255 255
255 255 255
255 255 255
208 224 236
0 88 156
151 187 214
255 255 255
255 255 255
255 255 255
255 255 255
255 255 255
200 219 233
0 88 156
100 154 210
100 154 210
100 154 210
100 154 210
100 154 210
100 154 210
100 154 210
100 154 210
100 154 210
161 193 227
255 255 255
255 255 255
255 255 255
255 255 255
255 255 255
255 255 255
255 255 255
255 255 255
255 255 255
133 175 219
100 154 210
100 154 210
100 154 210
100 154 210
100 154 210
96 151 207
51 112 171
4 71 133
0 68 130
0 68 130
0 73 137
0 84 151
0 88 156
0 88 156
0 88 156
0 88 156
0 88 156
0 88 156
0 88 156
0 88 156
0 88 156
44 117 173
79 140 186
156 190 216
255 255 255
200 219 233
79 140 186
64 130 181
0 88 156
47 118 174
79 140 186
161 193 218
255 255 255
194 215 231
79 140 186
62 128 180
0 88 156
100 154 210
100 154 210
100 154 210
100 154 210
100 154 210
100 154 210
100 154 210
100 154 210
100 154 210
147 184 223
255 255 255
255 255 255
255 255 255
255 255 255
255 255 255
255 255 255
255 255 255
255 255 255
255 255 255
161 194 228
100 154 210
100 154 210
100 154 210
99 153 209
66 125 183
12 78 139
0 68 130
0 68 130
0 68 130
0 68 130
0 68 130
0 68 130
0 76 141
0 86 154
0 88 156
0 88 156
0 88 156
0 88 156
0 88 156
0 88 156
0 88 156
0 88 156
0 88 156
111 161 199
255 255 255
175 202 224
0 88 156
0 88 156
0 88 156
0 88 156
0 88 156
119 166 202
255 255 255
167 197 221
0 88 156
0 88 156
0 88 156
100 154 210
100 154 210
100 154 210
100 154 210
100 154 210
100 154 210
100 154 210
100 154 210
100 154 210
124 170 217
255 255 255
255 255 255
255 255 255
255 255 255
255 255 255
255 255 255
255 255 255
255 255 255
255 255 255
208 224 241
100 154 210
100 154 210
81 137 194
24 89 149
0 68 130
0 68 130
0 68 130
0 68 130
0 68 130
0 68 130
0 68 130
0 68 130
0 68 130
0 69 131
0 79 145
0 87 155
0 88 156
0 88 156
0 88 156
0 88 156
0 88 156
0 88 156
0 88 156
48 119 174
111 161 199
76 138 185
0 88 156
0 88 156
0 88 156
0 88 156
0 88 156
52 122 176
111 161 199
73 135 184
0 88 156
0 88 156
0 88 156
100 154 210
100 154 210
100 154 210
100 154 210
100 154 210
100 154 210
100 154 210
100 154 210
100 154 210
101 155 210
246 249 252
255 255 255
255 255 255
255 255 255
255 255 255
255 255 255
255 255 255
255 255 255
255 255 255
253 253 254
114 161 209
39 102 161
1 68 130
0 68 130
0 68 130
0 68 130
0 68 130
0 68 130
0 68 130
0 68 130
0 68 130
0 68 130
0 68 130
0 68 130
0 68 130
0 71 134
0 82 149
0 88 156
0 88 156
0 88 156
0 88 156
0 88 156
0 88 156
0 88 156
0 88 156
0 88 156
0 88 156
0 88 156
0 88 156
0 88 156
0 88 156
0 88 156
0 88 156
0 88 156
0 88 156
0 88 156
0 88 156
100 154 210
100 154 210
100 154 210
100 154 210
100 154 210
100 154 210
100 154 210
100 154 210
100 154 210
100 154 210
208 224 241
255 255 255
255 255 255
255 255 255
255 255 255
255 255 255
255 255 255
255 255 255
255 255 255
255 255 255
181 200 218
0 68 130
0 68 130
0 68 130
0 68 130
0 68 130
0 68 130
0 68 130
0 68 130
0 68 130
0 68 130
0 68 130
0 68 130
0 68 130
0 68 130
0 68 130
84 130 171
172 200 222
32 109 168
0 88 156
0 88 156
0 88 156
0 88 156
0 88 156
0 88 156
0 88 156
0 88 156
0 88 156
0 88 156
0 88 156
0 88 156
0 88 156
0 88 156
0 88 156
0 88 156
0 88 156
0 88 156
100 154 210
100 154 210
100 154 210
100 154 210
100 154 210
100 154 210
100 154 210
100 154 210
100 154 210
100 154 210
159 192 227
255 255 255
255 255 255
255 255 255
255 255 255
255 255 255
255 255 255
255 255 255
255 255 255
255 255 255
255 255 255
121 156 189
0 68 130
0 68 130
0 68 130
0 68 130
0 68 130
0 68 130
0 68 130
0 68 130
0 68 130
0 68 130
0 68 130
0 68 130
0 68 130
41 98 150
238 242 246
255 255 255
246 249 251
132 174 206
11 95 160
0 88 156
0 88 156
0 88 156
0 88 156
0 88 156
0 88 156
0 88 156
0 88 156
0 88 156
0 88 156
0 88 156
0 88 156
0 88 156
0 88 156
0 88 156
0 88 156
100 154 210
100 154 210
100 154 210
100 154 210
100 154 210
100 154 210
100 154 210
100 154 210
100 154 210
100 154 210
108 159 212
247 250 252
255 255 255
255 255 255
255 255 255
255 255 255
255 255 255
255 255 255
255 255 255
255 255 255
255 255 255
254 254 254
123 158 190
1 68 130
0 68 130
0 68 130
0 68 130
0 68 130
0 68 130
0 68 130
0 68 130
0 68 130
0 68 130
0 68 130
52 106 155
230 237 243
255 255 255
255 255 255
255 255 255
255 255 255
228 237 244
92 148 191
1 88 156
0 88 156
0 88 156
0 88 156
0 88 156
0 88 156
0 88 156
0 88 156
0 88 156
0 88 156
0 88 156
0 88 156
0 88 156
0 88 156
0 88 156
100 154 210
100 154 210
100 154 210
100 154 210
100 154 210
100 154 210
100 154 210
100 154 210
100 154 210
100 154 210
100 154 210
186 210 235
255 255 255
255 255 255
255 255 255
255 255 255
255 255 255
255 255 255
255 255 255
255 255 255
255 255 255
255 255 255
255 255 255
187 205 221
44 100 152
0 68 130
0 68 130
0 68 130
0 68 130
0 68 130
0 68 130
0 68 130
14 78 136
130 163 193
248 250 251
255 255 255
255 255 255
255 255 255
255 255 255
255 255 255
255 255 255
255 255 255
198 217 232
54 123 176
0 88 156
0 88 156
0 88 156
0 88 156
0 88 156
0 88 156
0 88 156
0 88 156
0 88 156
0 88 156
0 88 156
0 88 156
0 88 156
100 154 210
100 154 210
100 154 210
100 154 210
100 154 210
100 154 210
100 154 210
100 154 210
100 154 210
100 154 210
100 154 210
112 162 212
243 247 250
255 255 255
255 255 255
255 255 255
255 255 255
255 255 255
255 255 255
255 255 255
255 255 255
255 255 255
255 255 255
255 255 255
253 254 254
191 208 223
116 153 187
70 119 164
52 106 155
60 112 159
96 138 177
160 185 208
241 245 248
255 255 255
255 255 255
255 255 255
255 255 255
255 255 255
255 255 255
255 255 255
255 255 255
255 255 255
255 255 255
253 253 254
160 192 217
14 96 160
0 88 156
0 88 156
0 88 156
0 88 156
0 88 156
0 88 156
0 88 156
0 88 156
0 88 156
0 88 156
0 88 156
100 154 210
100 154 210
100 154 210
100 154 210
100 154 210
100 154 210
100 154 210
100 154 210
100 154 210
100 154 210
74 131 189
17 83 144
113 151 185
255 255 255
255 255 255
255 255 255
255 255 255
255 255 255
255 255 255
255 255 255
255 255 255
255 255 255
255 255 255
255 255 255
255 255 255
255 255 255
255 255 255
255 255 255
255 255 255
255 255 255
255 255 255
255 255 255
255 255 255
255 255 255
255 255 255
255 255 255
255 255 255
255 255 255
255 255 255
255 255 255
255 255 255
255 255 255
255 255 255
255 255 255
207 219 231
4 71 133
0 78 143
0 87 155
0 88 156
0 88 156
0 88 156
0 88 156
0 88 156
0 88 156
0 88 156
0 88 156
0 88 156
100 154 210
100 154 210
100 154 210
100 154 210
100 154 210
100 154 210
100 154 210
100 154 210
86 142 199
31 95 155
0 68 130
0 68 130
2 69 131
191 208 223
255 255 255
255 255 255
255 255 255
255 255 255
255 255 255
255 255 255
255 255 255
255 255 255
255 255 255
255 255 255
255 255 255
255 255 255
255 255 255
255 255 255
255 255 255
255 255 255
255 255 255
255 255 255
255 255 255
255 255 255
255 255 255
255 255 255
255 255 255
255 255 255
255 255 255
255 255 255
255 255 255
255 255 255
255 255 255
246 248 250
45 101 152
0 68 130
0 68 130
0 70 133
0 81 147
0 87 155
0 88 156
0 88 156
0 88 156
0 88 156
0 88 156
0 88 156
0 88 156
100 154 210
100 154 210
100 154 210
100 154 210
100 154 210
100 154 210
95 149 206
47 108 167
2 70 132
0 68 130
0 68 130
0 68 130
0 68 130
23 85 141
225 233 240
255 255 255
255 255 255
255 255 255
255 255 255
255 255 255
255 255 255
255 255 255
255 255 255
255 255 255
255 255 255
255 255 255
255 255 255
255 255 255
255 255 255
255 255 255
255 255 255
255 255 255
255 255 255
255 255 255
255 255 255
255 255 255
255 255 255
255 255 255
255 255 255
255 255 255
255 255 255
255 255 255
254 254 254
92 135 175
0 68 130
0 68 130
0 68 130
0 68 130
0 68 130
0 72 136
0 84 150
0 88 156
0 88 156
0 88 156
0 88 156
0 88 156
0 88 156
100 154 210
100 154 210
100 154 210
100 154 210
99 153 209
62 121 179
9 76 137
0 68 130
0 68 130
0 68 130
0 68 130
0 68 130
0 68 130
0 68 130
41 98 150
232 238 244
255 255 255
255 255 255
255 255 255
255 255 255
255 255 255
255 255 255
255 255 255
255 255 255
255 255 255
255 255 255
255 255 255
255 255 255
255 255 255
255 255 255
255 255 255
255 255 255
255 255 255
255 255 255
255 255 255
255 255 255
255 255 255
255 255 255
255 255 255
255 255 255
255 255 255
254 254 254
116 153 187
0 68 130
0 68 130
0 68 130
0 68 130
0 68 130
0 68 130
0 68 130
0 68 130
0 75 140
0 86 153
0 88 156
0 88 156
0 88 156
0 88 156
108 159 212
100 154 210
100 154 210
77 134 191
20 85 146
0 68 130
0 68 130
0 68 130
0 68 130
0 68 130
0 68 130
0 68 130
0 68 130
0 68 130
0 68 130
40 97 149
223 231 239
255 255 255
255 255 255
255 255 255
255 255 255
255 255 255
255 255 255
255 255 255
255 255 255
255 255 255
255 255 255
255 255 255
255 255 255
255 255 255
255 255 255
255 255 255
255 255 255
255 255 255
255 255 255
255 255 255
255 255 255
255 255 255
255 255 255
255 255 255
252 252 253
108 147 182
0 68 130
0 68 130
0 68 130
0 68 130
0 68 130
0 68 130
0 68 130
0 68 130
0 68 130
0 68 130
0 69 131
0 78 144
0 87 155
0 88 156
0 88 156
149 186 224
88 144 201
35 98 158
0 68 130
0 68 130
0 68 130
0 68 130
0 68 130
0 68 130
0 68 130
0 68 130
0 68 130
0 68 130
0 68 130
0 68 130
0 68 130
21 83 140
185 204 221
255 255 255
255 255 255
255 255 255
255 255 255
255 255 255
255 255 255
255 255 255
255 255 255
255 255 255
255 255 255
255 255 255
255 255 255
255 255 255
255 255 255
255 255 255
255 255 255
255 255 255
255 255 255
255 255 255
255 255 255
255 255 255
232 238 244
70 119 164
0 68 130
0 68 130
0 68 130
0 68 130
0 68 130
0 68 130
0 68 130
0 68 130
0 68 130
0 68 130
0 68 130
0 68 130
0 68 130
0 70 133
0 81 148
6 92 158
215 227 239
7 74 135
0 68 130
0 68 130
0 68 130
0 68 130
0 68 130
0 68 130
0 68 130
0 68 130
0 68 130
0 68 130
0 68 130
0 68 130
0 68 130
0 68 130
0 68 130
1 69 130
105 144 181
237 242 246
255 255 255
255 255 255
255 255 255
255 255 255
255 255 255
255 255 255
255 255 255
255 255 255
255 255 255
255 255 255
255 255 255
255 255 255
255 255 255
255 255 255
255 255 255
255 255 255
255 255 255
253 254 254
162 186 209
21 83 140
0 68 130
0 68 130
0 68 130
0 68 130
0 68 130
0 68 130
0 68 130
0 68 130
0 68 130
0 68 130
0 68 130
0 68 130
0 68 130
0 68 130
0 68 130
0 68 130
111 152 188
255 255 255
148 176 202
1 69 130
0 68 130
0 68 130
0 68 130
0 68 130
0 68 130
0 68 130
0 68 130
0 68 130
0 68 130
0 68 130
0 68 130
0 68 130
0 68 130
0 68 130
0 68 130
0 68 130
17 80 138
130 163 194
235 240 245
255 255 255
255 255 255
255 255 255
255 255 255
255 255 255
255 255 255
255 255 255
255 255 255
255 255 255
255 255 255
255 255 255
255 255 255
255 255 255
251 252 253
172 194 214
50 105 154
0 68 130
0 68 130
0 68 130
0 68 130
0 68 130
0 68 130
0 68 130
0 68 130
0 68 130
0 68 130
0 68 130
0 68 130
0 68 130
0 68 130
0 68 130
0 68 130
0 68 130
63 114 160
246 248 250
255 255 255
255 255 255
194 210 225
48 103 153
0 68 130
0 68 130
0 68 130
0 68 130
0 68 130
0 68 130
0 68 130
0 68 130
0 68 130
0 68 130
0 68 130
0 68 130
0 68 130
0 68 130
0 68 130
0 68 130
0 68 130
7 73 133
83 129 170
163 187 209
227 235 241
255 255 255
255 255 255
255 255 255
255 255 255
255 255 255
255 255 255
255 255 255
243 246 249
187 205 221
113 150 185
26 87 143
0 68 130
0 68 130
0 68 130
0 68 130
0 68 130
0 68 130
0 68 130
0 68 130
0 68 130
0 68 130
0 68 130
0 68 130
0 68 130
0 68 130
0 68 130
0 68 130
0 68 130
14 78 136
138 169 197
249 251 252
255 255 255
255 255 255
255 255 255
255 255 255
252 253 253
154 181 205
22 84 140
0 68 130
0 68 130
0 68 130
0 68 130
0 68 130
0 68 130
0 68 130
0 68 130
0 68 130
0 68 130
0 68 130
0 68 130
0 68 130
0 68 130
0 68 130
0 68 130
0 68 130
0 68 130
0 68 130
22 84 141
58 110 158
81 127 169
89 133 174
85 130 172
67 117 163
36 95 147
2 70 131
0 68 130
0 68 130
0 68 130
0 68 130
0 68 130
0 68 130
0 68 130
0 68 130
0 68 130
0 68 130
0 68 130
0 68 130
0 68 130
0 68 130
0 68 130
0 68 130
0 68 130
0 68 130
2 69 131
99 140 178
231 238 243
255 255 255
255 255 255
255 255 255
255 255 255
255 255 255
255 255 255
255 255 255
255 255 255
239 243 247
115 152 186
5 72 132
0 68 130
0 68 130
0 68 130
0 68 130
0 68 130
0 68 130
0 68 130
0 68 130
0 68 130
0 68 130
0 68 130
0 68 130
0 68 130
0 68 130
0 68 130
0 68 130
0 68 130
0 68 130
0 68 130
0 68 130
0 68 130
0 68 130
0 68 130
0 68 130
0 68 130
0 68 130
0 68 130
0 68 130
0 68 130
0 68 130
0 68 130
0 68 130
0 68 130
0 68 130
0 68 130
0 68 130
0 68 130
0 68 130
0 68 130
0 68 130
0 68 130
0 68 130
60 112 159
204 218 230
255 255 255
255 255 255
255 255 255
255 255 255
255 255 255
255 255 255
255 255 255
255 255 255
255 255 255
255 255 255
255 255 255
255 255 255
217 227 236
75 123 167
0 68 130
0 68 130
0 68 130
0 68 130
0 68 130
0 68 130
0 68 130
0 68 130
0 68 130
0 68 130
0 68 130
0 68 130
0 68 130
0 68 130
0 68 130
0 68 130
0 68 130
0 68 130
0 68 130
0 68 130
0 68 130
0 68 130
0 68 130
0 68 130
0 68 130
0 68 130
0 68 130
0 68 130
0 68 130
0 68 130
0 68 130
0 68 130
0 68 130
0 68 130
0 68 130
0 68 130
0 68 130
0 68 130
0 68 130
30 90 144
167 191 212
254 254 254
255 255 255
255 255 255
255 255 255
255 255 255
255 255 255
255 255 255
255 255 255
255 255 255
255 255 255
255 255 255
255 255 255
255 255 255
255 255 255
255 255 255
255 255 255
183 202 220
41 98 150
0 68 130
0 68 130
0 68 130
0 68 130
0 68 130
0 68 130
0 68 130
0 68 130
0 68 130
0 68 130
0 68 130
0 68 130
0 68 130
0 68 130
0 68 130
0 68 130
0 68 130
0 68 130
0 68 130
0 68 130
0 68 130
0 68 130
0 68 130
0 68 130
0 68 130
0 68 130
0 68 130
0 68 130
0 68 130
0 68 130
0 68 130
0 68 130
0 68 130
0 68 130
0 68 130
10 75 135
128 162 193
245 248 250
255 255 255
255 255 255
255 255 255
255 255 255
255 255 255
255 255 255
255 255 255
255 255 255
255 255 255
255 255 255
255 255 255
255 255 255
255 255 255
255 255 255
255 255 255
255 255 255
255 255 255
255 255 255
250 251 252
144 174 200
17 80 138
0 68 130
0 68 130
0 68 130
0 68 130
0 68 130
0 68 130
0 68 130
0 68 130
0 68 130
0 68 130
0 68 130
0 68 130
0 68 130
0 68 130
0 68 130
0 68 130
0 68 130
0 68 130
0 68 130
0 68 130
0 68 130
0 68 130
0 68 130
0 68 130
0 68 130
0 68 130
0 68 130
0 68 130
0 68 130
0 68 130
0 68 130
0 68 130
89 133 173
226 233 240
255 255 255
255 255 255
255 255 255
255 255 255
255 255 255
255 255 255
255 255 255
255 255 255
255 255 255
255 255 255
255 255 255
255 255 255
255 255 255
255 255 255
255 255 255
255 255 255
255 255 255
255 255 255
255 255 255
255 255 255
255 255 255
255 255 255
235 240 245
105 145 181
3 70 131
0 68 130
0 68 130
0 68 130
0 68 130
0 68 130
0 68 130
0 68 130
0 68 130
0 68 130
0 68 130
0 68 130
0 68 130
0 68 130
0 68 130
0 68 130
0 68 130
0 68 130
0 68 130
0 68 130
0 68 130
0 68 130
0 68 130
0 68 130
0 68 130
0 68 130
0 68 130
0 68 130
0 68 130
52 106 155
196 212 226
255 255 255
255 255 255
255 255 255
255 255 255
255 255 255
255 255 255
255 255 255
255 255 255
255 255 255
255 255 255
255 255 255
255 255 255
255 255 255
255 255 255
255 255 255
255 255 255
255 255 255
255 255 255
255 255 255
255 255 255
255 255 255
255 255 255
255 255 255
255 255 255
255 255 255
255 255 255
209 221 232
66 116 162
0 68 130
0 68 130
0 68 130
0 68 130
0 68 130
0 68 130
0 68 130
0 68 130
0 68 130
0 68 130
0 68 130
0 68 130
0 68 130
0 68 130
0 68 130
0 68 130
0 68 130
0 68 130
0 68 130
0 68 130
0 68 130
0 68 130
0 68 130
0 68 130
0 68 130
24 85 141
158 184 207
253 253 254
255 255 255
255 255 255
255 255 255
255 255 255
255 255 255
255 255 255
255 255 255
255 255 255
255 255 255
255 255 255
255 255 255
255 255 255
255 255 255
255 255 255
255 255 255
255 255 255
255 255 255
255 255 255
255 255 255
255 255 255
255 255 255
255 255 255
255 255 255
255 255 255
255 255 255
255 255 255
255 255 255
255 255 255
254 254 254
174 195 215
34 93 146
0 68 130
0 68 130
0 68 130
0 68 130
0 68 130
0 68 130
0 68 130
0 68 130
0 68 130
0 68 130
0 68 130
0 68 130
0 68 130
0 68 130
0 68 130
0 68 130
0 68 130
0 68 130
0 68 130
0 68 130
0 68 130
7 73 133
119 155 188
241 245 248
255 255 255
255 255 255
255 255 255
255 255 255
255 255 255
255 255 255
255 255 255
255 255 255
255 255 255
255 255 255
255 255 255
255 255 255
255 255 255
255 255 255
255 255 255
255 255 255
255 255 255
255 255 255
255 255 255
255 255 255
255 255 255
255 255 255
255 255 255
255 255 255
255 255 255
255 255 255
255 255 255
255 255 255
255 255 255
255 255 255
255 255 255
255 255 255
247 249 251
135 167 196
12 77 136
0 68 130
0 68 130
0 68 130
0 68 130
0 68 130
0 68 130
0 68 130
0 68 130
0 68 130
0 68 130
0 68 130
0 68 130
0 68 130
0 68 130
0 68 130
0 68 130
0 68 130
0 68 130
80 126 169
220 229 237
255 255 255
255 255 255
255 255 255
255 255 255
255 255 255
255 255 255
255 255 255
255 255 255
255 255 255
255 255 255
255 255 255
255 255 255
255 255 255
255 255 255
255 255 255
255 255 255
255 255 255
255 255 255
255 255 255
255 255 255
255 255 255
255 255 255
255 255 255
255 255 255
255 255 255
255 255 255
255 255 255
255 255 255
255 255 255
255 255 255
255 255 255
255 255 255
255 255 255
255 255 255
255 255 255
255 255 255
230 236 242
96 138 176
1 69 130
0 68 130
0 68 130
0 68 130
0 68 130
0 68 130
0 68 130
0 68 130
0 68 130
0 68 130
0 68 130
0 68 130
0 68 130
0 68 130
0 68 130
44 100 151
187 205 221
255 255 255
255 255 255
255 255 255
255 255 255
255 255 255
255 255 255
255 255 255
255 255 255
255 255 255
255 255 255
255 255 255
255 255 255
255 255 255
255 255 255
255 255 255
255 255 255
255 255 255
255 255 255
255 255 255
255 255 255
255 255 255
255 255 255
255 255 255
255 255 255
255 255 255
255 255 255
255 255 255
255 255 255
255 255 255
255 255 255
255 255 255
255 255 255
255 255 255
255 255 255
255 255 255
255 255 255
255 255 255
255 255 255
255 255 255
255 255 255
202 216 229
57 110 158
0 68 130
0 68 130
0 68 130
0 68 130
0 68 130
0 68 130
0 68 130
0 68 130
0 68 130
0 68 130
0 68 130
19 82 139
148 177 202
251 252 253
255 255 255
255 255 255
255 255 255
255 255 255
255 255 255
255 255 255
255 255 255
255 255 255
255 255 255
255 255 255
255 255 255
255 255 255
255 255 255
255 255 255
255 255 255
255 255 255
255 255 255
255 255 255
255 255 255
255 255 255
255 255 255
255 255 255
255 255 255
255 255 255
255 255 255
255 255 255
255 255 255
255 255 255
255 255 255
255 255 255
255 255 255
255 255 255
255 255 255
255 255 255
255 255 255
255 255 255
255 255 255
255 255 255
255 255 255
255 255 255
255 255 255
255 255 255
254 254 254
164 188 210
28 88 143
0 68 130
0 68 130
0 68 130
0 68 130
0 68 130
0 68 130
0 68 130
4 71 132
109 148 183
237 242 246
255 255 255
255 255 255
255 255 255
255 255 255
255 255 255
255 255 255
255 255 255
255 255 255
255 255 255
255 255 255
255 255 255
255 255 255
255 255 255
255 255 255
255 255 255
255 255 255
255 255 255
255 255 255
255 255 255
255 255 255
255 255 255
255 255 255
255 255 255
255 255 255
255 255 255
255 255 255
255 255 255
255 255 255
255 255 255
255 255 255
255 255 255
255 255 255
255 255 255
255 255 255
255 255 255
255 255 255
255 255 255
255 255 255
255 255 255
255 255 255
255 255 255
255 255 255
255 255 255
255 255 255
255 255 255
255 255 255
244 247 249
125 160 191
9 74 134
0 68 130
0 68 130
0 68 130
0 68 130
70 119 164
213 224 234
255 255 255
255 255 255
255 255 255
255 255 255
255 255 255
255 255 255
255 255 255
255 255 255
255 255 255
255 255 255
255 255 255
255 255 255
255 255 255
255 255 255
255 255 255
255 255 255
255 255 255
255 255 255
255 255 255
255 255 255
255 255 255
255 255 255
255 255 255
255 255 255
